<svg width="2091" height="200" viewBox="0 0 2091 200" fill="none" xmlns="http://www.w3.org/2000/svg">
<path d="M473.422 27H308.578C298.866 27 291 35.4425 291 45.75V158.25C291 168.619 298.924 177 308.578 177H473.422C483.053 177 491 168.654 491 158.25V45.75C491 35.4608 483.165 27 473.422 27ZM470.96 39.5L403.43 111.153C400.109 114.695 395.695 116.645 391 116.645C386.305 116.645 381.891 114.694 378.559 111.141L311.04 39.5H470.96ZM302.719 155.706V48.3021L353.359 102.033L302.719 155.706ZM311.047 164.5L361.667 110.849L370.284 119.992C375.818 125.894 383.175 129.145 391 129.145C398.825 129.145 406.182 125.894 411.705 120.003L420.333 110.849L470.953 164.5H311.047ZM479.281 155.706L428.641 102.033L479.281 48.3021V155.706Z" fill="black"/>
<path d="M673.422 27H558.578C548.885 27 541 34.885 541 44.5781V159.422C541 169.115 548.885 177 558.578 177H673.422C683.115 177 691 169.115 691 159.422V44.5781C691 34.885 683.115 27 673.422 27ZM679.281 159.422C679.281 162.652 676.652 165.281 673.422 165.281H638.852V122.508H657.609L659.795 104.344H638.852V84.7148C638.852 79.7045 642.63 75.9258 647.641 75.9258H660.824V58.9336C657.354 58.4437 650.661 57.7617 647.641 57.7617C640.807 57.7617 633.958 60.6445 628.85 65.6695C623.586 70.8469 620.688 77.6285 620.688 84.7664V104.344H601.645V122.508H620.688V165.281H558.578C555.348 165.281 552.719 162.652 552.719 159.422V44.5781C552.719 41.3476 555.348 38.7188 558.578 38.7188H673.422C676.652 38.7188 679.281 41.3476 679.281 44.5781V159.422Z" fill="black"/>
<path d="M987.877 153.926H967.37V87.7148H987.877V153.926ZM989.923 66.6199C989.923 59.9903 984.545 54.6094 977.919 54.6094C971.267 54.6094 965.902 59.9903 965.902 66.6199C965.902 73.2519 971.267 78.6328 977.919 78.6328C984.545 78.6328 989.923 73.2519 989.923 66.6199ZM1064.63 117.499C1064.63 99.7254 1060.88 86.543 1040.11 86.543C1030.14 86.543 1023.44 91.5325 1020.71 96.7213H1020.69V87.7148H1000.77V153.926H1020.69V121.052C1020.69 112.442 1022.88 104.102 1033.55 104.102C1044.08 104.102 1044.42 113.947 1044.42 121.598V153.926H1064.63V117.499ZM1091 162.422V47.5781C1091 37.885 1083.12 30 1073.42 30H958.578C948.885 30 941 37.885 941 47.5781V162.422C941 172.115 948.885 180 958.578 180H1073.42C1083.12 180 1091 172.115 1091 162.422ZM1073.42 41.7188C1076.65 41.7188 1079.28 44.3476 1079.28 47.5781V162.422C1079.28 165.652 1076.65 168.281 1073.42 168.281H958.578C955.348 168.281 952.719 165.652 952.719 162.422V47.5781C952.719 44.3476 955.348 41.7188 958.578 41.7188H1073.42Z" fill="black"/>
<path d="M1239.19 104.543C1236.54 101.885 1232.99 100.421 1229.22 100.421C1225.44 100.421 1221.9 101.885 1219.24 104.543L1217.23 106.547C1216.75 107.029 1216.1 107.294 1215.41 107.294C1214.72 107.294 1214.07 107.029 1213.59 106.548L1199.78 92.7403C1198.79 91.7516 1198.79 90.0811 1199.78 89.0938L1201.79 87.0878C1207.29 81.5855 1207.29 72.6336 1201.78 67.1319L1197.77 63.1212C1195.12 60.4634 1191.57 59 1187.8 59C1184.02 59 1180.48 60.4637 1177.82 63.1197L1177.27 63.6664C1170.93 70.0077 1168.63 79.4478 1170.79 90.2483C1172.82 100.403 1178.63 110.682 1187.13 119.193C1197.86 129.915 1211.52 136.317 1223.68 136.318H1223.68C1231.35 136.318 1237.91 133.807 1242.67 129.052L1243.21 128.51C1248.71 123.009 1248.71 114.057 1243.21 108.555L1239.19 104.543ZM1236.99 122.298L1236.45 122.84C1233.38 125.907 1228.97 127.528 1223.68 127.528H1223.68C1213.8 127.528 1202.46 122.088 1193.35 112.977C1186.05 105.681 1181.1 96.9966 1179.41 88.5245C1177.84 80.6979 1179.29 74.0768 1183.49 69.8823L1184.03 69.3356C1185.03 68.3381 1186.37 67.7888 1187.8 67.7888C1189.22 67.7888 1190.56 68.3381 1191.56 69.3359L1195.57 73.3467C1197.64 75.4215 1197.64 78.7977 1195.57 80.8722L1193.56 82.8784C1189.13 87.3105 1189.13 94.5225 1193.56 98.9551L1207.37 112.762C1209.51 114.904 1212.37 116.084 1215.41 116.084C1218.45 116.084 1221.31 114.904 1223.45 112.762L1225.45 110.757C1226.45 109.759 1227.79 109.21 1229.22 109.21C1230.65 109.21 1231.98 109.759 1232.98 110.757L1236.99 114.769C1239.07 116.844 1239.07 120.22 1236.99 122.298Z" fill="black"/>
<path d="M1214.39 86.7891C1216.78 86.7891 1218.73 88.7335 1218.73 91.1235C1218.73 93.5505 1220.7 95.5181 1223.12 95.5181C1225.55 95.5181 1227.52 93.5505 1227.52 91.1235C1227.52 83.8872 1221.63 78 1214.39 78C1211.97 78 1210 79.9676 1210 82.3945C1210 84.8215 1211.97 86.7891 1214.39 86.7891Z" fill="black"/>
<path d="M1214.39 69.7894C1220.22 69.7894 1225.69 72.0564 1229.8 76.1726C1233.92 80.2891 1236.19 85.762 1236.19 91.5833C1236.19 94.0103 1238.15 95.9778 1240.58 95.9778C1243.01 95.9778 1244.98 94.0103 1244.98 91.5833C1244.98 83.4145 1241.8 75.734 1236.02 69.9578C1230.24 64.1813 1222.56 61 1214.39 61C1211.97 61 1210 62.9676 1210 65.3945C1210 67.8215 1211.97 69.7894 1214.39 69.7894Z" fill="black"/>
<path d="M1214.39 43C1211.97 43 1210 44.9676 1210 47.3945C1210 49.8215 1211.97 51.7891 1214.39 51.7891C1236.04 51.7891 1253.65 69.3977 1253.65 91.041C1253.65 93.468 1255.61 95.4356 1258.04 95.4356C1260.47 95.4356 1262.44 93.468 1262.44 91.041C1262.43 64.5511 1240.88 43 1214.39 43Z" fill="black"/>
<path d="M1270.26 40.9909C1260.59 31.3238 1247.78 26 1234.2 26H1198.05C1184.46 26 1171.66 31.3238 1161.99 40.9909C1152.32 50.6583 1147 63.4628 1147 77.0463V102.5C1147 112.916 1150.15 122.954 1156.11 131.528C1161.35 139.058 1168.4 144.988 1176.63 148.813V165.541C1176.63 175.496 1182.91 176 1184.17 176C1186.94 176 1189.68 174.419 1192.33 171.299L1207.38 153.546H1234.2C1247.78 153.546 1260.59 148.222 1270.26 138.555C1279.92 128.888 1285.25 116.084 1285.25 102.5V77.0466C1285.25 63.4628 1279.92 50.658 1270.26 40.9909ZM1276.46 102.5C1276.46 125.8 1257.5 144.757 1234.2 144.757H1205.35C1204.06 144.757 1202.83 145.325 1202 146.309L1185.62 165.614C1185.56 165.691 1185.49 165.767 1185.43 165.843C1185.42 165.743 1185.42 165.642 1185.42 165.541V145.919C1185.42 145.037 1185.16 144.176 1184.66 143.447C1184.17 142.718 1183.46 142.156 1182.64 141.832C1166.58 135.486 1155.79 119.68 1155.79 102.499V77.046C1155.79 53.7456 1174.75 34.7891 1198.05 34.7891H1234.2C1257.5 34.7891 1276.46 53.7456 1276.46 77.0463V102.5Z" fill="black"/>
<path d="M1490.92 67.558C1481.16 67.558 1472.16 64.7176 1464.93 59.9261C1456.63 54.4332 1450.68 46.3759 1448.57 37.0891C1448.04 34.754 1447.77 32.3806 1447.74 30H1419.87V96.9236L1419.83 133.581C1419.83 143.381 1412.57 151.691 1402.5 154.613C1399.48 155.489 1396.31 155.86 1393.14 155.705C1388.94 155.502 1385.01 154.39 1381.59 152.594C1374.32 148.774 1369.39 141.843 1369.26 133.915C1369.05 121.524 1380.45 111.422 1394.54 111.422C1397.33 111.422 1400 111.821 1402.5 112.545V87.6779C1399.86 87.3346 1397.18 87.1556 1394.46 87.1556C1379.04 87.1556 1364.61 92.7893 1354.29 102.939C1346.5 110.609 1341.82 120.394 1341.1 130.655C1340.16 144.135 1345.77 156.949 1356.66 166.403C1358.26 167.791 1359.94 169.079 1361.7 170.267C1371.03 176.579 1382.44 180 1394.46 180C1397.18 180 1399.86 179.824 1402.5 179.481C1413.73 178.019 1424.09 173.504 1432.26 166.403C1442.31 157.679 1447.86 146.098 1447.92 133.771L1447.78 79.0307C1452.58 82.2861 1457.84 84.9825 1463.43 87.0529C1472.18 90.2952 1481.45 91.9383 1491 91.9354V67.5521C1491.01 67.558 1490.93 67.558 1490.92 67.558Z" fill="black"/>
<g clip-path="url(#clip0_2_137)">
<path d="M1567 125.192C1575.84 130.864 1586.35 134.173 1597.64 134.173C1634.4 134.173 1654.51 103.717 1654.51 77.303C1654.51 76.4379 1654.49 75.5754 1654.45 74.7174C1658.36 71.9002 1661.74 68.38 1664.42 64.3714C1660.77 65.9882 1656.91 67.0495 1652.94 67.5199C1657.07 65.0457 1660.24 61.1287 1661.73 56.4617C1657.81 58.7897 1653.52 60.4298 1649.04 61.3111C1645.39 57.4272 1640.2 55 1634.45 55C1623.41 55 1614.46 63.9496 1614.46 74.9871C1614.46 76.5527 1614.64 78.0787 1614.98 79.5415C1598.37 78.708 1583.64 70.7515 1573.78 58.6581C1572.06 61.6108 1571.08 65.0432 1571.08 68.7072C1571.08 75.6406 1574.61 81.7588 1579.97 85.3433C1576.8 85.2437 1573.69 84.3861 1570.92 82.8422C1570.91 82.9269 1570.91 83.0101 1570.91 83.0948C1570.91 92.7777 1577.8 100.857 1586.95 102.693C1585.23 103.159 1583.46 103.395 1581.68 103.395C1580.39 103.395 1579.14 103.269 1577.92 103.035C1580.46 110.976 1587.85 116.754 1596.59 116.915C1589.75 122.276 1581.13 125.472 1571.77 125.472C1570.15 125.472 1568.56 125.378 1567 125.192Z" fill="black"/>
<path d="M1541 20V170H1691V20H1541ZM1681.72 160.722H1550.28V29.2784H1681.72V160.722Z" fill="black"/>
</g>
<path d="M1885.9 122.26C1867.37 118.361 1859.78 105.836 1856.72 97.4227C1861.02 96.807 1865.26 95.8125 1869.38 94.4495C1872.4 93.4505 1874.86 91.2051 1876.14 88.2869C1877.41 85.3675 1877.38 82.0327 1876.05 79.1316L1876 79.0115C1873.62 73.8078 1867.72 71.2375 1862.27 73.0342C1859.86 73.8296 1857.39 74.4441 1854.89 74.8721V67.089C1854.89 45.6474 1837.44 28.2031 1816 28.2031C1794.56 28.2031 1777.11 45.6474 1777.11 67.089V74.9671C1774.41 74.538 1771.75 73.8914 1769.15 73.0342C1763.71 71.2375 1757.81 73.8078 1755.43 79.0069L1755.37 79.1362C1754.04 82.0327 1754.01 85.3675 1755.29 88.2869C1756.56 91.204 1759.02 93.4505 1762.04 94.4495C1766.34 95.8698 1770.76 96.8894 1775.25 97.4971C1772.18 105.902 1764.57 118.371 1746.1 122.26L1741 123.334L1742.93 128.18C1743.13 128.675 1747.56 139.346 1762.67 140.631C1762.92 143.587 1763.86 147.138 1766.62 149.349C1769.41 151.578 1772.58 150.721 1775.37 149.964C1779.48 148.85 1785.12 147.324 1793.76 153.088C1802.18 158.699 1809.09 161.505 1816 161.505C1822.91 161.505 1829.82 158.699 1838.24 153.088C1846.88 147.324 1852.52 148.849 1856.63 149.964C1859.42 150.721 1862.59 151.578 1865.38 149.349C1868.14 147.138 1869.08 143.587 1869.33 140.631C1884.44 139.345 1888.87 128.675 1889.07 128.18L1891 123.334L1885.9 122.26ZM1865.04 131.954L1859.81 131.73L1860.52 136.917C1860.75 138.748 1860.57 140.766 1860.23 141.832C1859.81 141.73 1859.33 141.599 1858.92 141.49C1854.17 140.203 1845.33 137.807 1833.37 145.783C1826.08 150.639 1820.89 152.711 1816 152.711C1811.11 152.711 1805.92 150.639 1798.63 145.783C1791.99 141.357 1786.32 140.125 1781.76 140.125C1778.12 140.125 1775.19 140.917 1773.08 141.49C1772.67 141.6 1772.19 141.731 1771.77 141.833C1771.39 140.673 1771.28 138.489 1771.48 136.933L1772.19 131.745L1766.96 131.954C1761.04 132.193 1757.18 130.662 1754.75 128.964C1763.55 125.906 1770.78 120.758 1776.3 113.602C1781.98 106.252 1784.34 98.5625 1785.25 94.6338L1786.42 89.5766L1781.24 89.2654C1775.64 88.9289 1770.11 87.868 1764.8 86.1137C1763.9 85.8173 1763.5 85.1489 1763.33 84.777C1763.17 84.4039 1762.96 83.6497 1763.36 82.7708L1763.41 82.6633C1763.93 81.5349 1765.21 80.9798 1766.4 81.3712C1771.19 82.9517 1776.17 83.921 1781.22 84.2517L1785.89 84.5584V67.089C1785.89 50.4882 1799.4 36.983 1816 36.983C1832.6 36.983 1846.11 50.4882 1846.11 67.089V84.5676L1850.83 84.2082C1855.66 83.8409 1860.44 82.8864 1865.03 81.3712C1866.21 80.9798 1867.5 81.5349 1868.02 82.669L1868.07 82.7892C1868.47 83.6509 1868.25 84.4051 1868.09 84.777C1867.93 85.1501 1867.52 85.8184 1866.62 86.1148C1861.48 87.8143 1856.13 88.8637 1850.72 89.2345L1845.59 89.5858L1846.74 94.596C1847.64 98.5248 1850 106.213 1855.67 113.57C1861.2 120.743 1868.44 125.902 1877.25 128.964C1874.82 130.662 1870.97 132.193 1865.04 131.954Z" fill="black"/>
<path d="M2088.7 41.4859C2086.87 39.2381 2084.12 38 2080.97 38C2079.26 38 2077.45 38.3569 2075.6 39.0603L1948.6 87.1763C1941.85 89.7352 1940.94 93.587 1941 95.6552C1941.06 97.7131 1942.18 101.479 1948.97 103.653L1975.91 113.523L1990.1 146.013C1991.53 150.507 1994.51 153.659 1998.31 154.682C1999.19 154.918 2000.09 155.034 2000.99 155.034C2004.08 155.034 2007.24 153.673 2009.98 151.106L2021.74 140.058L2050.43 159.807C2053.01 161.717 2055.82 162.725 2058.57 162.725C2064.13 162.725 2068.57 158.651 2069.87 152.347L2090.64 51.8949C2091.5 47.7665 2090.81 44.07 2088.7 41.4859ZM1984.83 111.998L2021.48 92.3442L1995.94 115.773C1995.03 116.608 1994.52 117.783 1994.52 119.007C1994.52 119.053 1994.51 119.096 1994.51 119.142L1994.43 133.958L1984.83 111.998ZM2003.96 144.7C2003.69 144.955 2003.42 145.178 2003.15 145.373L2003.25 127.337L2014.33 134.958L2003.96 144.7ZM2082.04 50.115L2061.27 150.567C2061.06 151.579 2060.37 153.936 2058.57 153.936C2057.72 153.936 2056.67 153.501 2055.62 152.711C2055.57 152.677 2055.52 152.644 2055.48 152.612L2023.84 130.839C2023.84 130.836 2023.84 130.834 2023.83 130.831L2005.95 118.52L2053.19 75.1841C2054.82 73.6867 2055.09 71.2084 2053.8 69.4018C2052.52 67.5953 2050.1 67.0258 2048.14 68.0726L1978.84 105.237L1951.91 95.3675C1951.89 95.3601 1951.87 95.3531 1951.85 95.3461L2078.71 47.2795C2079.78 46.8744 2080.53 46.7894 2080.97 46.7894C2081.18 46.7894 2081.71 46.8134 2081.89 47.0361C2082.12 47.3211 2082.41 48.2906 2082.04 50.115Z" fill="black"/>
<g clip-path="url(#clip1_2_137)">
<path d="M816.487 63C811.433 62.9992 806.428 63.9941 801.758 65.928C797.088 67.8619 792.845 70.6968 789.271 74.2709C785.697 77.845 782.862 82.0881 780.928 86.758C778.994 91.4279 777.999 96.433 778 101.488C777.999 106.542 778.994 111.547 780.928 116.217C782.862 120.887 785.697 125.13 789.271 128.704C792.845 132.278 797.088 135.113 801.758 137.047C806.428 138.981 811.433 139.976 816.487 139.975C821.542 139.976 826.547 138.981 831.217 137.047C835.887 135.113 840.13 132.278 843.704 128.704C847.278 125.13 850.113 120.887 852.047 116.217C853.981 111.547 854.976 106.542 854.975 101.488C854.976 96.433 853.981 91.4279 852.047 86.758C850.113 82.0881 847.278 77.845 843.704 74.2709C840.13 70.6968 835.887 67.8619 831.217 65.928C826.547 63.9941 821.542 62.9992 816.487 63ZM816.487 126.469C811.548 126.468 806.721 125.002 802.614 122.257C798.508 119.512 795.308 115.612 793.419 111.048C791.529 106.485 791.035 101.464 791.999 96.6198C792.963 91.7757 795.341 87.3262 798.834 83.8338C802.326 80.3413 806.776 77.9628 811.62 76.9989C816.464 76.0351 821.485 76.5291 826.048 78.4187C830.612 80.3082 834.512 83.5083 837.257 87.6145C840.002 91.7206 841.468 96.5484 841.469 101.488C841.47 104.769 840.825 108.018 839.571 111.049C838.316 114.081 836.476 116.836 834.156 119.156C831.836 121.476 829.081 123.316 826.049 124.571C823.018 125.825 819.769 126.47 816.487 126.469Z" fill="black"/>
<path d="M846.926 27.4712C833.126 26.8274 798.945 26.8587 785.133 27.4712C772.995 28.0399 762.289 30.9712 753.658 39.6024C739.233 54.0274 741.076 73.4649 741.076 101.971C741.076 131.146 739.451 150.134 753.658 164.34C768.139 178.815 787.858 176.921 816.026 176.921C844.926 176.921 854.901 176.94 865.12 172.984C879.014 167.59 889.501 155.171 890.526 132.865C891.176 119.059 891.139 84.8837 890.526 71.0712C889.289 44.7399 875.158 28.7712 846.926 27.4712ZM868.77 154.796C859.314 164.252 846.195 163.409 815.845 163.409C784.595 163.409 772.064 163.871 762.92 154.702C752.389 144.221 754.295 127.39 754.295 101.871C754.295 67.3399 750.751 42.4712 785.408 40.6962C793.37 40.4149 795.714 40.3212 815.758 40.3212L816.039 40.5087C849.345 40.5087 875.476 37.0212 877.045 71.6712C877.401 79.5774 877.483 81.9524 877.483 101.965C877.476 132.852 878.064 145.459 868.77 154.796Z" fill="black"/>
<path d="M855.994 70.9875C860.961 70.9875 864.988 66.9609 864.988 61.9937C864.988 57.0266 860.961 53 855.994 53C851.027 53 847 57.0266 847 61.9937C847 66.9609 851.027 70.9875 855.994 70.9875Z" fill="black"/>
</g>
<path d="M204.642 25H54.3587C34.3104 25 18 40.2931 18 59.0908V140.909C18 159.707 34.3104 175 54.3587 175H204.641C224.69 175 241 159.707 241 140.909V59.0908C241 40.2931 224.69 25 204.642 25ZM226.457 140.909C226.457 152.188 216.671 161.364 204.642 161.364H54.3587C42.3297 161.364 32.5434 152.188 32.5434 140.909V59.0908C32.5434 47.8122 42.3297 38.6363 54.3587 38.6363H204.641C216.67 38.6363 226.457 47.8122 226.457 59.0908V140.909H226.457Z" fill="black"/>
<path d="M180.44 94.2905L112.332 55.1601C109.929 53.7792 106.8 53.6187 104.211 54.7452C101.623 55.8714 100 58.0964 100 60.5222V138.783C100 141.209 101.623 143.434 104.212 144.56C106.796 145.684 109.925 145.528 112.332 144.145L180.441 105.015C182.561 103.796 183.826 101.792 183.826 99.6526C183.826 97.5128 182.561 95.5089 180.44 94.2905ZM115.717 126.336V72.9694L162.161 99.6526L115.717 126.336Z" fill="black"/>
<defs>
<clipPath id="clip0_2_137">
<rect width="150" height="150" fill="white" transform="translate(1541 20)"/>
</clipPath>
<clipPath id="clip1_2_137">
<rect width="150" height="150" fill="white" transform="translate(741 27)"/>
</clipPath>
</defs>
</svg>
